<!-- Stylized outlined ghost icon (no mouth, outlined eyes, thicker stroke) -->
<svg xmlns="http://www.w3.org/2000/svg" viewBox="0 0 512 512" width="512" height="512" role="img" aria-hidden="true">
  <!-- Ghost outline -->
  <path
    d="M256 56
       C188 56 128 116 128 184
       V300
       C128 336 156 360 188 344
       C208 332 228 316 256 316
       C284 316 304 332 324 344
       C356 360 384 336 384 300
       V184
       C384 116 324 56 256 56
       Z"
    fill="none"
    stroke="currentColor"
    stroke-width="18"
    stroke-linecap="round"
    stroke-linejoin="round"
  />

  <!-- Wavy bottom -->
  <path
    d="M188 344
       C212 372 236 356 256 356
       C276 356 300 372 324 344"
    fill="none"
    stroke="currentColor"
    stroke-width="18"
    stroke-linecap="round"
    stroke-linejoin="round"
  />

  <!-- Outlined eyes with thicker stroke -->
  <circle cx="208" cy="184" r="18" fill="none" stroke="currentColor" stroke-width="12"/>
  <circle cx="304" cy="184" r="18" fill="none" stroke="currentColor" stroke-width="12"/>
</svg>
